<svg id="visual" viewBox="0 0 "  class="w-screen h-screen" xmlns="http://www.w3.org/2000/svg" xmlns:xlink="http://www.w3.org/1999/xlink" version="1.1"><rect x="0" y="0" width="1920" height="1080" fill="#f1f3fc"></rect><defs><linearGradient id="grad1_0" x1="43.8%" y1="0%" x2="100%" y2="100%"><stop offset="14.444444444444446%" stop-color="#d6d6ec" stop-opacity="1"></stop><stop offset="85.55555555555554%" stop-color="#d6d6ec" stop-opacity="1"></stop></linearGradient></defs><defs><linearGradient id="grad1_1" x1="43.8%" y1="0%" x2="100%" y2="100%"><stop offset="14.444444444444446%" stop-color="#d6d6ec" stop-opacity="1"></stop><stop offset="85.55555555555554%" stop-color="#e3e5f4" stop-opacity="1"></stop></linearGradient></defs><defs><linearGradient id="grad1_2" x1="43.8%" y1="0%" x2="100%" y2="100%"><stop offset="14.444444444444446%" stop-color="#f1f3fc" stop-opacity="1"></stop><stop offset="85.55555555555554%" stop-color="#e3e5f4" stop-opacity="1"></stop></linearGradient></defs><defs><linearGradient id="grad2_0" x1="0%" y1="0%" x2="56.3%" y2="100%"><stop offset="14.444444444444446%" stop-color="#d6d6ec" stop-opacity="1"></stop><stop offset="85.55555555555554%" stop-color="#d6d6ec" stop-opacity="1"></stop></linearGradient></defs><defs><linearGradient id="grad2_1" x1="0%" y1="0%" x2="56.3%" y2="100%"><stop offset="14.444444444444446%" stop-color="#e3e5f4" stop-opacity="1"></stop><stop offset="85.55555555555554%" stop-color="#d6d6ec" stop-opacity="1"></stop></linearGradient></defs><defs><linearGradient id="grad2_2" x1="0%" y1="0%" x2="56.3%" y2="100%"><stop offset="14.444444444444446%" stop-color="#e3e5f4" stop-opacity="1"></stop><stop offset="85.55555555555554%" stop-color="#f1f3fc" stop-opacity="1"></stop></linearGradient></defs><g transform="translate(1920, 0)"><path d="M0 918C-86.8 887.2 -173.6 856.4 -271.6 836C-369.6 815.6 -478.8 805.6 -539.6 742.7C-600.4 679.7 -612.8 563.8 -662.6 481.4C-712.4 399 -799.5 350.3 -848.3 275.6C-897.1 201 -907.6 100.5 -918 0L0 0Z" fill="#eaecf8"></path><path d="M0 612C-57.9 591.5 -115.8 570.9 -181.1 557.3C-246.4 543.7 -319.2 537.1 -359.7 495.1C-400.3 453.1 -408.5 375.8 -441.7 320.9C-474.9 266 -533 233.5 -565.6 183.8C-598.1 134 -605 67 -612 0L0 0Z" fill="#dcddf0"></path><path d="M0 306C-28.9 295.7 -57.9 285.5 -90.5 278.7C-123.2 271.9 -159.6 268.5 -179.9 247.6C-200.1 226.6 -204.3 187.9 -220.9 160.5C-237.5 133 -266.5 116.8 -282.8 91.9C-299 67 -302.5 33.5 -306 0L0 0Z" fill="#d6d6ec"></path></g><g transform="translate(0, 1080)"><path d="M0 -918C99.2 -912.5 198.4 -907.1 283.7 -873.1C368.9 -839.1 440.1 -776.5 523.1 -720C606.1 -663.5 700.9 -613 731.4 -531.4C761.8 -449.7 728.1 -336.9 748.5 -243.2C768.9 -149.4 843.4 -74.7 918 0L0 0Z" fill="#eaecf8"></path><path d="M0 -612C66.1 -608.4 132.3 -604.7 189.1 -582C245.9 -559.4 293.4 -517.7 348.8 -480C404.1 -442.3 467.2 -408.7 487.6 -354.2C507.9 -299.8 485.4 -224.6 499 -162.1C512.6 -99.6 562.3 -49.8 612 0L0 0Z" fill="#dcddf0"></path><path d="M0 -306C33.1 -304.2 66.1 -302.4 94.6 -291C123 -279.7 146.7 -258.8 174.4 -240C202 -221.2 233.6 -204.3 243.8 -177.1C253.9 -149.9 242.7 -112.3 249.5 -81.1C256.3 -49.8 281.1 -24.9 306 0L0 0Z" fill="#d6d6ec"></path></g></svg>