<?xml version="1.0" encoding="utf-8"?>
<svg width="228.99997px" height="130px" viewBox="0 0 228.99997 130" version="1.1" xmlns:xlink="http://www.w3.org/1999/xlink" xmlns="http://www.w3.org/2000/svg">
  <g id="Group">
    <path d="M16.0619 50.3124C21.3019 51.7813 25.4191 44.804 26.542 43.335C34.0278 36.6025 48.9245 22.0356 48.6251 17.6288C48.2508 12.1203 34.0278 2.93956 26.542 0.73617C19.0563 -1.46722 11.5704 1.83787 8.95035 3.3068C6.33032 4.77572 1.46455 12.1203 0.341679 19.465C-0.781191 26.8096 1.83884 33.787 3.71029 38.561C5.58174 43.335 10.8218 48.8435 16.0619 50.3124L16.0619 50.3124Z" id="Shape" fill="#615FCC" fill-rule="evenodd" stroke="none" />
    <path d="M37.7707 26.8096C54.0092 9.54971 71.831 5.51018 114.5 5.51018L114.5 130L114.5 5.51189C157.169 5.51189 174.991 9.5514 191.23 26.8113C200.961 37.155 217.43 76.3879 220.798 92.9133C221.666 97.1688 224.95 111.987 229 130L1.19441e-05 130C4.05015 111.987 7.33421 97.1668 8.20171 92.9111C11.5703 76.3857 28.0392 37.1533 37.7707 26.8096Z" id="Shape-Subtract" fill="#615FCC" fill-rule="evenodd" stroke="none" />
    <path d="M52.368 85.5664C52.368 72.3834 63.2603 61.6964 76.6968 61.6964C90.1333 61.6964 101.026 72.3834 101.026 85.5664C101.026 98.7495 90.1333 109.436 76.6968 109.436C63.2603 109.436 52.368 98.7495 52.368 85.5664Z" id="Circle" fill="#FFFFFF" fill-rule="evenodd" stroke="none" />
    <path d="M63.5967 85.5664C63.5967 78.4679 69.4618 72.7133 76.6968 72.7133C83.9318 72.7133 89.797 78.4679 89.797 85.5664C89.797 92.665 83.9318 98.4195 76.6968 98.4195C69.4618 98.4195 63.5967 92.665 63.5967 85.5664Z" id="Circle" fill="#615FCC" fill-rule="evenodd" stroke="none" />
    <path d="M77.8197 77.4873C77.8197 75.2563 79.663 73.4478 81.9369 73.4478C84.2108 73.4478 86.0541 75.2563 86.0541 77.4873C86.0541 79.7183 84.2108 81.5269 81.9369 81.5269C79.663 81.5269 77.8197 79.7183 77.8197 77.4873Z" id="Circle" fill="#FFFFFF" fill-rule="evenodd" stroke="none" />
    <path d="M212.938 50.3141C207.698 51.783 203.581 44.8056 202.458 43.3367C194.972 36.6042 180.076 22.0373 180.375 17.6305C180.749 12.122 194.972 2.94126 202.458 0.737871C209.944 -1.46552 217.43 1.83957 220.05 3.3085C222.67 4.77743 227.536 12.122 228.659 19.4667C229.781 26.8113 227.161 33.7887 225.29 38.5627C223.419 43.3367 218.178 48.8452 212.938 50.3141L212.938 50.3141Z" id="Shape" fill="#615FCC" fill-rule="evenodd" stroke="none" />
    <path d="M180.4 85.53C180.4 72.3469 169.508 61.6599 156.071 61.6599C142.635 61.6599 131.742 72.3469 131.742 85.53C131.742 98.713 142.635 109.4 156.071 109.4C169.508 109.4 180.4 98.713 180.4 85.53Z" id="Circle" fill="#FFFFFF" fill-rule="evenodd" stroke="none" />
    <path d="M169.171 85.53C169.171 78.4314 163.306 72.6768 156.071 72.6768C148.836 72.6768 142.971 78.4314 142.971 85.53C142.971 92.6285 148.836 98.3831 156.071 98.3831C163.306 98.3831 169.171 92.6285 169.171 85.53Z" id="Circle" fill="#615FCC" fill-rule="evenodd" stroke="none" />
    <path d="M164.68 77.4486C164.68 75.2177 162.836 73.4091 160.563 73.4091C158.289 73.4091 156.445 75.2177 156.445 77.4486C156.445 79.6796 158.289 81.4882 160.563 81.4882C162.836 81.4882 164.68 79.6796 164.68 77.4486Z" id="Circle" fill="#FFFFFF" fill-rule="evenodd" stroke="none" />
  </g>
</svg>