<svg width="340" height="387" viewBox="0 0 340 387" fill="none" xmlns="http://www.w3.org/2000/svg">
<line x1="169.5" y1="8.00232" x2="169.5" y2="373.002" stroke="black"/>
<path d="M38.5001 68.5023C45.5001 70.5023 51.0001 61.0023 52.5001 59.0023C62.5001 49.8357 82.4001 30.0023 82.0001 24.0023C81.5001 16.5023 62.5001 4.00232 52.5001 1.00232C42.5002 -1.99768 32.5001 2.50233 29.0001 4.50233C25.5001 6.50233 19.0001 16.5023 17.5001 26.5023C16.0001 36.5023 19.5001 46.0023 22.0001 52.5023C24.5001 59.0023 31.5001 66.5023 38.5001 68.5023Z" fill="#615FCC"/>
<path fill-rule="evenodd" clip-rule="evenodd" d="M170 7.50232C113 7.50232 89.1925 13.0023 67.5001 36.5023C54.5001 50.5856 32.5 104.002 28 126.502C25.8294 137.355 12.3334 198.669 2.00011 244.502C-2.7345 265.502 1.8001 289.402 7.0001 301.002C12.2001 312.602 24.6666 331.002 32 337.002C43 346.002 64.2 357.102 71 359.502C79.5 362.502 120.5 371.002 128 372.002C134 372.802 158.667 373.336 170 373.002V7.50232ZM170 7.50464C227 7.50464 250.808 13.0046 272.5 36.5046C285.5 50.5879 307.5 104.005 312 126.505C314.171 137.358 327.667 198.671 338 244.505C342.735 265.505 338.2 289.405 333 301.005C327.8 312.605 315.334 331.005 308 337.005C297 346.005 275.8 357.105 269 359.505C260.5 362.505 219.5 371.005 212 372.005C206 372.805 181.333 373.338 170 373.005V7.50464Z" fill="#B3BFEE"/>
<circle cx="117.5" cy="131.502" r="32.5" fill="white"/>
<circle cx="117.5" cy="131.502" r="17.5" fill="#615FCC"/>
<circle cx="124.5" cy="120.502" r="5.5" fill="white"/>
<path d="M301.5 68.5046C294.5 70.5046 289 61.0046 287.5 59.0046C277.5 49.838 257.6 30.0046 258 24.0046C258.5 16.5046 277.5 4.00464 287.5 1.00464C297.5 -1.99536 307.5 2.50465 311 4.50465C314.5 6.50465 321 16.5046 322.5 26.5046C324 36.5046 320.5 46.0046 318 52.5046C315.5 59.0046 308.5 66.5046 301.5 68.5046Z" fill="#615FCC"/>
<circle r="32.5" transform="matrix(-1 0 0 1 222.5 131.505)" fill="white"/>
<circle r="17.5" transform="matrix(-1 0 0 1 222.5 131.505)" fill="#615FCC"/>
<circle r="5.5" transform="matrix(-1 0 0 1 228.5 120.502)" fill="white"/>
<path d="M209.559 202.296C215.722 201.495 224.693 203.597 222.661 209.47V209.47C221.671 212.33 218.541 215.066 213.547 217.435C208.554 219.805 201.85 221.735 194.032 223.054C186.213 224.374 177.52 225.042 168.723 225C159.926 224.959 151.296 224.208 143.598 222.814C135.899 221.421 129.371 219.428 124.589 217.012C119.808 214.597 116.922 211.832 116.187 208.964V208.964C114.602 202.782 123.929 201.073 130.249 201.964L157.675 205.834C165.523 206.941 173.483 206.985 181.342 205.963L209.559 202.296Z" fill="#615FCC"/>
<path d="M189.224 219.033C194.507 218.372 195.419 213.164 190.217 212.034V212.034C184.273 210.743 177.248 210.037 170.03 210.004C162.812 209.97 155.725 210.613 149.665 211.849V211.849C144.441 212.914 145.267 218.209 150.549 218.927L167.826 221.275C168.937 221.426 170.064 221.432 171.177 221.292L189.224 219.033Z" fill="white"/>
<ellipse cx="275.5" cy="346.502" rx="59.5" ry="26.5" transform="rotate(-14.2697 275.5 346.502)" fill="#615FCC"/>
<ellipse rx="59.5" ry="26.5" transform="matrix(-0.969146 -0.246487 -0.246487 0.969146 64.196 346.351)" fill="#615FCC"/>
</svg>
