<?xml version="1.0" encoding="utf-8"?>
<svg width="25px" height="25px" viewBox="0 0 25 25" version="1.1" xmlns:xlink="http://www.w3.org/1999/xlink" xmlns="http://www.w3.org/2000/svg">
  <g id="Group-2">
    <path d="M3.999 0L21.001 0Q21.1975 0 21.393 0.0192563Q21.5885 0.0385126 21.7812 0.0768396Q21.9738 0.115167 22.1618 0.172196Q22.3498 0.229224 22.5313 0.304406Q22.7129 0.379587 22.8861 0.472197Q23.0594 0.564807 23.2227 0.673953Q23.3861 0.783099 23.5379 0.907731Q23.6898 1.03236 23.8287 1.17128Q23.9676 1.3102 24.0923 1.46206Q24.2169 1.61393 24.326 1.77727Q24.4352 1.94062 24.5278 2.11388Q24.6204 2.28715 24.6956 2.46865Q24.7708 2.65015 24.8278 2.83815Q24.8848 3.02615 24.9232 3.21883Q24.9615 3.41152 24.9807 3.60703Q25 3.80254 25 3.999L25 21.001Q25 21.1975 24.9807 21.393Q24.9615 21.5885 24.9232 21.7812Q24.8848 21.9738 24.8278 22.1618Q24.7708 22.3498 24.6956 22.5313Q24.6204 22.7129 24.5278 22.8861Q24.4352 23.0594 24.326 23.2227Q24.2169 23.3861 24.0923 23.5379Q23.9676 23.6898 23.8287 23.8287Q23.6898 23.9676 23.5379 24.0923Q23.3861 24.2169 23.2227 24.326Q23.0594 24.4352 22.8861 24.5278Q22.7129 24.6204 22.5313 24.6956Q22.3498 24.7708 22.1618 24.8278Q21.9738 24.8848 21.7812 24.9232Q21.5885 24.9615 21.393 24.9807Q21.1975 25 21.001 25L3.999 25Q3.80254 25 3.60703 24.9807Q3.41152 24.9615 3.21883 24.9232Q3.02615 24.8848 2.83815 24.8278Q2.65015 24.7708 2.46865 24.6956Q2.28715 24.6204 2.11388 24.5278Q1.94062 24.4352 1.77727 24.326Q1.61393 24.2169 1.46206 24.0923Q1.3102 23.9676 1.17128 23.8287Q1.03236 23.6898 0.907731 23.5379Q0.783099 23.3861 0.673953 23.2227Q0.564807 23.0594 0.472197 22.8861Q0.379587 22.7129 0.304406 22.5313Q0.229224 22.3498 0.172196 22.1618Q0.115167 21.9738 0.0768396 21.7812Q0.0385126 21.5885 0.0192563 21.393Q0 21.1975 0 21.001L0 3.999Q0 3.80254 0.0192563 3.60703Q0.0385126 3.41152 0.0768396 3.21883Q0.115167 3.02615 0.172196 2.83815Q0.229224 2.65015 0.304406 2.46865Q0.379587 2.28715 0.472197 2.11388Q0.564807 1.94062 0.673953 1.77727Q0.783099 1.61393 0.907731 1.46206Q1.03236 1.3102 1.17128 1.17128Q1.3102 1.03236 1.46206 0.907731Q1.61393 0.783099 1.77727 0.673953Q1.94062 0.564807 2.11388 0.472197Q2.28715 0.379587 2.46865 0.304406Q2.65015 0.229224 2.83815 0.172196Q3.02615 0.115167 3.21883 0.0768396Q3.41152 0.0385126 3.60703 0.0192563Q3.80254 0 3.999 0Z" id="Rectangle-5" fill="#FFFFFF" fill-rule="evenodd" stroke="none" />
    <path d="M9.999 18L21.001 18Q21.0994 18 21.1959 18.0192Q21.2924 18.0384 21.3833 18.076Q21.4742 18.1137 21.556 18.1684Q21.6378 18.223 21.7074 18.2926Q21.777 18.3622 21.8316 18.444Q21.8863 18.5258 21.924 18.6167Q21.9616 18.7076 21.9808 18.8041Q22 18.9006 22 18.999L22 20.001Q22 20.0994 21.9808 20.1959Q21.9616 20.2924 21.924 20.3833Q21.8863 20.4742 21.8316 20.556Q21.777 20.6378 21.7074 20.7074Q21.6378 20.777 21.556 20.8316Q21.4742 20.8863 21.3833 20.924Q21.2924 20.9616 21.1959 20.9808Q21.0994 21 21.001 21L9.999 21Q9.90061 21 9.8041 20.9808Q9.7076 20.9616 9.6167 20.924Q9.52579 20.8863 9.44398 20.8316Q9.36217 20.777 9.2926 20.7074Q9.22303 20.6378 9.16836 20.556Q9.1137 20.4742 9.07604 20.3833Q9.03839 20.2924 9.01919 20.1959Q9 20.0994 9 20.001L9 18.999Q9 18.9006 9.01919 18.8041Q9.03839 18.7076 9.07604 18.6167Q9.1137 18.5258 9.16836 18.444Q9.22303 18.3622 9.2926 18.2926Q9.36217 18.223 9.44398 18.1684Q9.52579 18.1137 9.6167 18.076Q9.7076 18.0384 9.8041 18.0192Q9.90061 18 9.999 18L9.999 18Z" id="Rectangle-6" fill="#000000" fill-rule="evenodd" stroke="none" />
    <path d="M9.999 11L21.001 11Q21.0994 11 21.1959 11.0192Q21.2924 11.0384 21.3833 11.076Q21.4742 11.1137 21.556 11.1684Q21.6378 11.223 21.7074 11.2926Q21.777 11.3622 21.8316 11.444Q21.8863 11.5258 21.924 11.6167Q21.9616 11.7076 21.9808 11.8041Q22 11.9006 22 11.999L22 13.001Q22 13.0994 21.9808 13.1959Q21.9616 13.2924 21.924 13.3833Q21.8863 13.4742 21.8316 13.556Q21.777 13.6378 21.7074 13.7074Q21.6378 13.777 21.556 13.8316Q21.4742 13.8863 21.3833 13.924Q21.2924 13.9616 21.1959 13.9808Q21.0994 14 21.001 14L9.999 14Q9.90061 14 9.8041 13.9808Q9.7076 13.9616 9.6167 13.924Q9.52579 13.8863 9.44398 13.8316Q9.36217 13.777 9.2926 13.7074Q9.22303 13.6378 9.16836 13.556Q9.1137 13.4742 9.07604 13.3833Q9.03839 13.2924 9.01919 13.1959Q9 13.0994 9 13.001L9 11.999Q9 11.9006 9.01919 11.8041Q9.03839 11.7076 9.07604 11.6167Q9.1137 11.5258 9.16836 11.444Q9.22303 11.3622 9.2926 11.2926Q9.36217 11.223 9.44398 11.1684Q9.52579 11.1137 9.6167 11.076Q9.7076 11.0384 9.8041 11.0192Q9.90061 11 9.999 11L9.999 11Z" id="Rectangle-7" fill="#000000" fill-rule="evenodd" stroke="none" />
    <path d="M9.999 4L21.001 4Q21.0994 4 21.1959 4.0192Q21.2924 4.03839 21.3833 4.07604Q21.4742 4.1137 21.556 4.16836Q21.6378 4.22303 21.7074 4.2926Q21.777 4.36217 21.8316 4.44398Q21.8863 4.5258 21.924 4.6167Q21.9616 4.7076 21.9808 4.8041Q22 4.90061 22 4.999L22 6.001Q22 6.09939 21.9808 6.19589Q21.9616 6.2924 21.924 6.3833Q21.8863 6.4742 21.8316 6.55601Q21.777 6.63782 21.7074 6.7074Q21.6378 6.77697 21.556 6.83164Q21.4742 6.8863 21.3833 6.92395Q21.2924 6.96161 21.1959 6.9808Q21.0994 7 21.001 7L9.999 7Q9.90061 7 9.8041 6.9808Q9.7076 6.96161 9.6167 6.92395Q9.52579 6.8863 9.44398 6.83164Q9.36217 6.77697 9.2926 6.7074Q9.22303 6.63782 9.16836 6.55601Q9.1137 6.4742 9.07604 6.3833Q9.03839 6.2924 9.01919 6.19589Q9 6.09939 9 6.001L9 4.999Q9 4.90061 9.01919 4.8041Q9.03839 4.7076 9.07604 4.6167Q9.1137 4.5258 9.16836 4.44398Q9.22303 4.36217 9.2926 4.2926Q9.36217 4.22303 9.44398 4.16836Q9.52579 4.1137 9.6167 4.07604Q9.7076 4.03839 9.8041 4.0192Q9.90061 4 9.999 4L9.999 4Z" id="Rectangle-8" fill="#000000" fill-rule="evenodd" stroke="none" />
    <path d="M3.999 3L7.001 3Q7.09939 3 7.19589 3.0192Q7.2924 3.03839 7.3833 3.07604Q7.4742 3.1137 7.55601 3.16836Q7.63782 3.22303 7.7074 3.2926Q7.77697 3.36217 7.83164 3.44398Q7.8863 3.5258 7.92395 3.6167Q7.96161 3.7076 7.9808 3.8041Q8 3.90061 8 3.999L8 7.001Q8 7.09939 7.9808 7.19589Q7.96161 7.2924 7.92395 7.3833Q7.8863 7.4742 7.83164 7.55601Q7.77697 7.63782 7.7074 7.7074Q7.63782 7.77697 7.55601 7.83164Q7.4742 7.8863 7.3833 7.92395Q7.2924 7.96161 7.19589 7.9808Q7.09939 8 7.001 8L3.999 8Q3.90061 8 3.8041 7.9808Q3.7076 7.96161 3.6167 7.92395Q3.5258 7.8863 3.44398 7.83164Q3.36217 7.77697 3.2926 7.7074Q3.22303 7.63782 3.16836 7.55601Q3.1137 7.4742 3.07604 7.3833Q3.03839 7.2924 3.0192 7.19589Q3 7.09939 3 7.001L3 3.999Q3 3.90061 3.0192 3.8041Q3.03839 3.7076 3.07604 3.6167Q3.1137 3.5258 3.16836 3.44398Q3.22303 3.36217 3.2926 3.2926Q3.36217 3.22303 3.44398 3.16836Q3.5258 3.1137 3.6167 3.07604Q3.7076 3.03839 3.8041 3.0192Q3.90061 3 3.999 3Z" id="Rectangle-9" fill="#000000" fill-rule="evenodd" stroke="none" />
    <path d="M4.499 4L6.501 4Q6.55015 4 6.59835 4.00959Q6.64655 4.01918 6.69196 4.03798Q6.73736 4.05679 6.77823 4.0841Q6.81909 4.1114 6.85385 4.14615Q6.8886 4.18091 6.9159 4.22177Q6.94321 4.26263 6.96202 4.30804Q6.98082 4.35345 6.99041 4.40165Q7 4.44985 7 4.499L7 6.501Q7 6.55015 6.99041 6.59835Q6.98082 6.64655 6.96202 6.69196Q6.94321 6.73736 6.9159 6.77823Q6.8886 6.81909 6.85385 6.85385Q6.81909 6.8886 6.77823 6.9159Q6.73736 6.94321 6.69196 6.96202Q6.64655 6.98082 6.59835 6.99041Q6.55015 7 6.501 7L4.499 7Q4.44985 7 4.40165 6.99041Q4.35345 6.98082 4.30804 6.96202Q4.26263 6.94321 4.22177 6.9159Q4.18091 6.8886 4.14615 6.85385Q4.1114 6.81909 4.0841 6.77823Q4.05679 6.73736 4.03798 6.69196Q4.01918 6.64655 4.00959 6.59835Q4 6.55015 4 6.501L4 4.499Q4 4.44985 4.00959 4.40165Q4.01918 4.35345 4.03798 4.30804Q4.05679 4.26263 4.0841 4.22177Q4.1114 4.18091 4.14615 4.14615Q4.18091 4.1114 4.22177 4.0841Q4.26263 4.05679 4.30804 4.03798Q4.35345 4.01918 4.40165 4.00959Q4.44985 4 4.499 4Z" id="Rectangle-10" fill="#FFFFFF" fill-rule="evenodd" stroke="none" />
    <path d="M3.999 10L7.001 10Q7.09939 10 7.19589 10.0192Q7.2924 10.0384 7.3833 10.076Q7.4742 10.1137 7.55601 10.1684Q7.63782 10.223 7.7074 10.2926Q7.77697 10.3622 7.83164 10.444Q7.8863 10.5258 7.92395 10.6167Q7.96161 10.7076 7.9808 10.8041Q8 10.9006 8 10.999L8 14.001Q8 14.0994 7.9808 14.1959Q7.96161 14.2924 7.92395 14.3833Q7.8863 14.4742 7.83164 14.556Q7.77697 14.6378 7.7074 14.7074Q7.63782 14.777 7.55601 14.8316Q7.4742 14.8863 7.3833 14.924Q7.2924 14.9616 7.19589 14.9808Q7.09939 15 7.001 15L3.999 15Q3.90061 15 3.8041 14.9808Q3.7076 14.9616 3.6167 14.924Q3.5258 14.8863 3.44398 14.8316Q3.36217 14.777 3.2926 14.7074Q3.22303 14.6378 3.16836 14.556Q3.1137 14.4742 3.07604 14.3833Q3.03839 14.2924 3.0192 14.1959Q3 14.0994 3 14.001L3 10.999Q3 10.9006 3.0192 10.8041Q3.03839 10.7076 3.07604 10.6167Q3.1137 10.5258 3.16836 10.444Q3.22303 10.3622 3.2926 10.2926Q3.36217 10.223 3.44398 10.1684Q3.5258 10.1137 3.6167 10.076Q3.7076 10.0384 3.8041 10.0192Q3.90061 10 3.999 10Z" id="Rectangle-11" fill="#000000" fill-rule="evenodd" stroke="none" />
    <path d="M4.499 11L6.501 11Q6.55015 11 6.59835 11.0096Q6.64655 11.0192 6.69196 11.038Q6.73736 11.0568 6.77823 11.0841Q6.81909 11.1114 6.85385 11.1462Q6.8886 11.1809 6.9159 11.2218Q6.94321 11.2626 6.96202 11.308Q6.98082 11.3534 6.99041 11.4016Q7 11.4499 7 11.499L7 13.501Q7 13.5501 6.99041 13.5983Q6.98082 13.6466 6.96202 13.692Q6.94321 13.7374 6.9159 13.7782Q6.8886 13.8191 6.85385 13.8538Q6.81909 13.8886 6.77823 13.9159Q6.73736 13.9432 6.69196 13.962Q6.64655 13.9808 6.59835 13.9904Q6.55015 14 6.501 14L4.499 14Q4.44985 14 4.40165 13.9904Q4.35345 13.9808 4.30804 13.962Q4.26263 13.9432 4.22177 13.9159Q4.18091 13.8886 4.14615 13.8538Q4.1114 13.8191 4.0841 13.7782Q4.05679 13.7374 4.03798 13.692Q4.01918 13.6466 4.00959 13.5983Q4 13.5501 4 13.501L4 11.499Q4 11.4499 4.00959 11.4016Q4.01918 11.3534 4.03798 11.308Q4.05679 11.2626 4.0841 11.2218Q4.1114 11.1809 4.14615 11.1462Q4.18091 11.1114 4.22177 11.0841Q4.26263 11.0568 4.30804 11.038Q4.35345 11.0192 4.40165 11.0096Q4.44985 11 4.499 11Z" id="Rectangle-12" fill="#00FF88" fill-rule="evenodd" stroke="none" />
    <path d="M3.999 17L7.001 17Q7.09939 17 7.19589 17.0192Q7.2924 17.0384 7.3833 17.076Q7.4742 17.1137 7.55601 17.1684Q7.63782 17.223 7.7074 17.2926Q7.77697 17.3622 7.83164 17.444Q7.8863 17.5258 7.92395 17.6167Q7.96161 17.7076 7.9808 17.8041Q8 17.9006 8 17.999L8 21.001Q8 21.0994 7.9808 21.1959Q7.96161 21.2924 7.92395 21.3833Q7.8863 21.4742 7.83164 21.556Q7.77697 21.6378 7.7074 21.7074Q7.63782 21.777 7.55601 21.8316Q7.4742 21.8863 7.3833 21.924Q7.2924 21.9616 7.19589 21.9808Q7.09939 22 7.001 22L3.999 22Q3.90061 22 3.8041 21.9808Q3.7076 21.9616 3.6167 21.924Q3.5258 21.8863 3.44398 21.8316Q3.36217 21.777 3.2926 21.7074Q3.22303 21.6378 3.16836 21.556Q3.1137 21.4742 3.07604 21.3833Q3.03839 21.2924 3.0192 21.1959Q3 21.0994 3 21.001L3 17.999Q3 17.9006 3.0192 17.8041Q3.03839 17.7076 3.07604 17.6167Q3.1137 17.5258 3.16836 17.444Q3.22303 17.3622 3.2926 17.2926Q3.36217 17.223 3.44398 17.1684Q3.5258 17.1137 3.6167 17.076Q3.7076 17.0384 3.8041 17.0192Q3.90061 17 3.999 17Z" id="Rectangle-13" fill="#000000" fill-rule="evenodd" stroke="none" />
    <path d="M4.499 18L6.501 18Q6.55015 18 6.59835 18.0096Q6.64655 18.0192 6.69196 18.038Q6.73736 18.0568 6.77823 18.0841Q6.81909 18.1114 6.85385 18.1462Q6.8886 18.1809 6.9159 18.2218Q6.94321 18.2626 6.96202 18.308Q6.98082 18.3534 6.99041 18.4016Q7 18.4499 7 18.499L7 20.501Q7 20.5501 6.99041 20.5983Q6.98082 20.6465 6.96202 20.692Q6.94321 20.7374 6.9159 20.7782Q6.8886 20.8191 6.85385 20.8538Q6.81909 20.8886 6.77823 20.9159Q6.73736 20.9432 6.69196 20.962Q6.64655 20.9808 6.59835 20.9904Q6.55015 21 6.501 21L4.499 21Q4.44985 21 4.40165 20.9904Q4.35345 20.9808 4.30804 20.962Q4.26263 20.9432 4.22177 20.9159Q4.18091 20.8886 4.14615 20.8538Q4.1114 20.8191 4.0841 20.7782Q4.05679 20.7374 4.03798 20.692Q4.01918 20.6465 4.00959 20.5983Q4 20.5501 4 20.501L4 18.499Q4 18.4499 4.00959 18.4016Q4.01918 18.3534 4.03798 18.308Q4.05679 18.2626 4.0841 18.2218Q4.1114 18.1809 4.14615 18.1462Q4.18091 18.1114 4.22177 18.0841Q4.26263 18.0568 4.30804 18.038Q4.35345 18.0192 4.40165 18.0096Q4.44985 18 4.499 18Z" id="Rectangle-14" fill="#00FF88" fill-rule="evenodd" stroke="none" />
  </g>
</svg>