<?xml version="1.0" encoding="utf-8"?>
<svg width="25px" height="25px" viewBox="0 0 25 25" version="1.1" xmlns:xlink="http://www.w3.org/1999/xlink" xmlns="http://www.w3.org/2000/svg">
  <g id="Group-3">
    <path d="M3.999 0L21.001 0Q21.1975 0 21.393 0.0192563Q21.5885 0.0385126 21.7812 0.0768396Q21.9738 0.115167 22.1618 0.172196Q22.3498 0.229224 22.5313 0.304406Q22.7129 0.379587 22.8861 0.472197Q23.0594 0.564807 23.2227 0.673953Q23.3861 0.783099 23.5379 0.907731Q23.6898 1.03236 23.8287 1.17128Q23.9676 1.3102 24.0923 1.46206Q24.2169 1.61393 24.326 1.77727Q24.4352 1.94062 24.5278 2.11388Q24.6204 2.28715 24.6956 2.46865Q24.7708 2.65015 24.8278 2.83815Q24.8848 3.02615 24.9232 3.21883Q24.9615 3.41152 24.9807 3.60703Q25 3.80254 25 3.999L25 21.001Q25 21.1975 24.9807 21.393Q24.9615 21.5885 24.9232 21.7812Q24.8848 21.9738 24.8278 22.1618Q24.7708 22.3498 24.6956 22.5313Q24.6204 22.7129 24.5278 22.8861Q24.4352 23.0594 24.326 23.2227Q24.2169 23.3861 24.0923 23.5379Q23.9676 23.6898 23.8287 23.8287Q23.6898 23.9676 23.5379 24.0923Q23.3861 24.2169 23.2227 24.326Q23.0594 24.4352 22.8861 24.5278Q22.7129 24.6204 22.5313 24.6956Q22.3498 24.7708 22.1618 24.8278Q21.9738 24.8848 21.7812 24.9232Q21.5885 24.9615 21.393 24.9807Q21.1975 25 21.001 25L3.999 25Q3.80254 25 3.60703 24.9807Q3.41152 24.9615 3.21883 24.9232Q3.02615 24.8848 2.83815 24.8278Q2.65015 24.7708 2.46865 24.6956Q2.28715 24.6204 2.11388 24.5278Q1.94062 24.4352 1.77727 24.326Q1.61393 24.2169 1.46206 24.0923Q1.3102 23.9676 1.17128 23.8287Q1.03236 23.6898 0.907731 23.5379Q0.783099 23.3861 0.673953 23.2227Q0.564807 23.0594 0.472197 22.8861Q0.379587 22.7129 0.304406 22.5313Q0.229224 22.3498 0.172196 22.1618Q0.115167 21.9738 0.0768396 21.7812Q0.0385126 21.5885 0.0192563 21.393Q0 21.1975 0 21.001L0 3.999Q0 3.80254 0.0192563 3.60703Q0.0385126 3.41152 0.0768396 3.21883Q0.115167 3.02615 0.172196 2.83815Q0.229224 2.65015 0.304406 2.46865Q0.379587 2.28715 0.472197 2.11388Q0.564807 1.94062 0.673953 1.77727Q0.783099 1.61393 0.907731 1.46206Q1.03236 1.3102 1.17128 1.17128Q1.3102 1.03236 1.46206 0.907731Q1.61393 0.783099 1.77727 0.673953Q1.94062 0.564807 2.11388 0.472197Q2.28715 0.379587 2.46865 0.304406Q2.65015 0.229224 2.83815 0.172196Q3.02615 0.115167 3.21883 0.0768396Q3.41152 0.0385126 3.60703 0.0192563Q3.80254 0 3.999 0Z" id="Rectangle" fill="#FFFFFF" fill-rule="evenodd" stroke="none" />
    <path d="M3 5.5C3 4.11929 4.11929 3 5.5 3C6.88071 3 8 4.11929 8 5.5C8 6.88071 6.88071 8 5.5 8C4.11929 8 3 6.88071 3 5.5Z" id="Oval" fill="#000000" fill-rule="evenodd" stroke="none" />
    <path d="M4 5.5C4 4.67157 4.67157 4 5.5 4C6.32843 4 7 4.67157 7 5.5C7 6.32843 6.32843 7 5.5 7C4.67157 7 4 6.32843 4 5.5Z" id="Oval-4" fill="#FFFFFF" fill-rule="evenodd" stroke="none" />
    <path d="M3 12.5C3 11.1193 4.11929 10 5.5 10C6.88071 10 8 11.1193 8 12.5C8 13.8807 6.88071 15 5.5 15C4.11929 15 3 13.8807 3 12.5Z" id="Oval-2" fill="#000000" fill-rule="evenodd" stroke="none" />
    <path d="M3 19.5C3 18.1193 4.11929 17 5.5 17C6.88071 17 8 18.1193 8 19.5C8 20.8807 6.88071 22 5.5 22C4.11929 22 3 20.8807 3 19.5Z" id="Oval-3" fill="#000000" fill-rule="evenodd" stroke="none" />
    <path d="M4 12.5C4 11.6716 4.67157 11 5.5 11C6.32843 11 7 11.6716 7 12.5C7 13.3284 6.32843 14 5.5 14C4.67157 14 4 13.3284 4 12.5Z" id="Oval-5" fill="#00FF88" fill-rule="evenodd" stroke="none" />
    <path d="M4 19.5C4 18.6716 4.67157 18 5.5 18C6.32843 18 7 18.6716 7 19.5C7 20.3284 6.32843 21 5.5 21C4.67157 21 4 20.3284 4 19.5Z" id="Oval-6" fill="#FFFFFF" fill-rule="evenodd" stroke="none" />
    <path d="M9.999 18L21.001 18Q21.0994 18 21.1959 18.0192Q21.2924 18.0384 21.3833 18.076Q21.4742 18.1137 21.556 18.1684Q21.6378 18.223 21.7074 18.2926Q21.777 18.3622 21.8316 18.444Q21.8863 18.5258 21.924 18.6167Q21.9616 18.7076 21.9808 18.8041Q22 18.9006 22 18.999L22 20.001Q22 20.0994 21.9808 20.1959Q21.9616 20.2924 21.924 20.3833Q21.8863 20.4742 21.8316 20.556Q21.777 20.6378 21.7074 20.7074Q21.6378 20.777 21.556 20.8316Q21.4742 20.8863 21.3833 20.924Q21.2924 20.9616 21.1959 20.9808Q21.0994 21 21.001 21L9.999 21Q9.90061 21 9.8041 20.9808Q9.7076 20.9616 9.6167 20.924Q9.52579 20.8863 9.44398 20.8316Q9.36217 20.777 9.2926 20.7074Q9.22303 20.6378 9.16836 20.556Q9.1137 20.4742 9.07604 20.3833Q9.03839 20.2924 9.01919 20.1959Q9 20.0994 9 20.001L9 18.999Q9 18.9006 9.01919 18.8041Q9.03839 18.7076 9.07604 18.6167Q9.1137 18.5258 9.16836 18.444Q9.22303 18.3622 9.2926 18.2926Q9.36217 18.223 9.44398 18.1684Q9.52579 18.1137 9.6167 18.076Q9.7076 18.0384 9.8041 18.0192Q9.90061 18 9.999 18L9.999 18Z" id="Rectangle-2" fill="#000000" fill-rule="evenodd" stroke="none" />
    <path d="M9.999 11L21.001 11Q21.0994 11 21.1959 11.0192Q21.2924 11.0384 21.3833 11.076Q21.4742 11.1137 21.556 11.1684Q21.6378 11.223 21.7074 11.2926Q21.777 11.3622 21.8316 11.444Q21.8863 11.5258 21.924 11.6167Q21.9616 11.7076 21.9808 11.8041Q22 11.9006 22 11.999L22 13.001Q22 13.0994 21.9808 13.1959Q21.9616 13.2924 21.924 13.3833Q21.8863 13.4742 21.8316 13.556Q21.777 13.6378 21.7074 13.7074Q21.6378 13.777 21.556 13.8316Q21.4742 13.8863 21.3833 13.924Q21.2924 13.9616 21.1959 13.9808Q21.0994 14 21.001 14L9.999 14Q9.90061 14 9.8041 13.9808Q9.7076 13.9616 9.6167 13.924Q9.52579 13.8863 9.44398 13.8316Q9.36217 13.777 9.2926 13.7074Q9.22303 13.6378 9.16836 13.556Q9.1137 13.4742 9.07604 13.3833Q9.03839 13.2924 9.01919 13.1959Q9 13.0994 9 13.001L9 11.999Q9 11.9006 9.01919 11.8041Q9.03839 11.7076 9.07604 11.6167Q9.1137 11.5258 9.16836 11.444Q9.22303 11.3622 9.2926 11.2926Q9.36217 11.223 9.44398 11.1684Q9.52579 11.1137 9.6167 11.076Q9.7076 11.0384 9.8041 11.0192Q9.90061 11 9.999 11L9.999 11Z" id="Rectangle-3" fill="#000000" fill-rule="evenodd" stroke="none" />
    <path d="M9.999 4L21.001 4Q21.0994 4 21.1959 4.0192Q21.2924 4.03839 21.3833 4.07604Q21.4742 4.1137 21.556 4.16836Q21.6378 4.22303 21.7074 4.2926Q21.777 4.36217 21.8316 4.44398Q21.8863 4.5258 21.924 4.6167Q21.9616 4.7076 21.9808 4.8041Q22 4.90061 22 4.999L22 6.001Q22 6.09939 21.9808 6.19589Q21.9616 6.2924 21.924 6.3833Q21.8863 6.4742 21.8316 6.55601Q21.777 6.63782 21.7074 6.7074Q21.6378 6.77697 21.556 6.83164Q21.4742 6.8863 21.3833 6.92395Q21.2924 6.96161 21.1959 6.9808Q21.0994 7 21.001 7L9.999 7Q9.90061 7 9.8041 6.9808Q9.7076 6.96161 9.6167 6.92395Q9.52579 6.8863 9.44398 6.83164Q9.36217 6.77697 9.2926 6.7074Q9.22303 6.63782 9.16836 6.55601Q9.1137 6.4742 9.07604 6.3833Q9.03839 6.2924 9.01919 6.19589Q9 6.09939 9 6.001L9 4.999Q9 4.90061 9.01919 4.8041Q9.03839 4.7076 9.07604 4.6167Q9.1137 4.5258 9.16836 4.44398Q9.22303 4.36217 9.2926 4.2926Q9.36217 4.22303 9.44398 4.16836Q9.52579 4.1137 9.6167 4.07604Q9.7076 4.03839 9.8041 4.0192Q9.90061 4 9.999 4L9.999 4Z" id="Rectangle-4" fill="#000000" fill-rule="evenodd" stroke="none" />
  </g>
</svg>